<mxfile host="app.diagrams.net" agent="Mozilla/5.0 (Windows NT 10.0; Win64; x64) AppleWebKit/537.36 (KHTML, like Gecko) Chrome/131.0.0.0 Safari/537.36" version="25.0.3">
  <diagram name="Page-1" id="m8ZOOHti-PywEi2Ixw58">
    <mxGraphModel dx="2618" dy="614" grid="1" gridSize="10" guides="1" tooltips="1" connect="1" arrows="1" fold="1" page="1" pageScale="1" pageWidth="1100" pageHeight="850" math="0" shadow="0">
      <root>
        <mxCell id="0" />
        <mxCell id="1" parent="0" />
        <mxCell id="BSfTipwodXiJnX08Yy5S-1" value="4.1" style="swimlane;html=1;fontStyle=0;childLayout=stackLayout;horizontal=1;startSize=26;fillColor=#e0e0e0;horizontalStack=0;resizeParent=1;resizeLast=0;collapsible=1;marginBottom=0;swimlaneFillColor=#ffffff;align=center;rounded=1;shadow=0;comic=0;labelBackgroundColor=none;strokeWidth=1;fontFamily=Verdana;fontSize=12" vertex="1" parent="1">
          <mxGeometry x="-91.28" y="430" width="160" height="110" as="geometry" />
        </mxCell>
        <mxCell id="BSfTipwodXiJnX08Yy5S-3" value="" style="endArrow=classic;html=1;rounded=0;exitX=-0.003;exitY=0.826;exitDx=0;exitDy=0;entryX=1;entryY=0.833;entryDx=0;entryDy=0;entryPerimeter=0;exitPerimeter=0;" edge="1" parent="1">
          <mxGeometry width="50" height="50" relative="1" as="geometry">
            <mxPoint x="-300" y="159.5" as="sourcePoint" />
            <mxPoint x="-91" y="160.5" as="targetPoint" />
            <Array as="points" />
          </mxGeometry>
        </mxCell>
        <mxCell id="BSfTipwodXiJnX08Yy5S-5" value="&lt;span style=&quot;font-size: 18px;&quot;&gt;ผู้ใช้&lt;/span&gt;" style="rounded=0;whiteSpace=wrap;html=1;" vertex="1" parent="1">
          <mxGeometry x="-420" y="130" width="120" height="60" as="geometry" />
        </mxCell>
        <mxCell id="BSfTipwodXiJnX08Yy5S-6" value="4.1" style="swimlane;html=1;fontStyle=0;childLayout=stackLayout;horizontal=1;startSize=26;fillColor=#e0e0e0;horizontalStack=0;resizeParent=1;resizeLast=0;collapsible=1;marginBottom=0;swimlaneFillColor=#ffffff;align=center;rounded=1;shadow=0;comic=0;labelBackgroundColor=none;strokeWidth=1;fontFamily=Verdana;fontSize=12" vertex="1" parent="1">
          <mxGeometry x="-90" y="110" width="160" height="110" as="geometry" />
        </mxCell>
        <mxCell id="BSfTipwodXiJnX08Yy5S-7" value="&lt;span style=&quot;font-size: 18px;&quot;&gt;ป้อนข้อมูล&lt;/span&gt;&lt;div&gt;&lt;span style=&quot;font-size: 18px;&quot;&gt;ผลงาน&lt;/span&gt;&lt;/div&gt;" style="text;html=1;strokeColor=none;fillColor=none;spacingLeft=4;spacingRight=4;whiteSpace=wrap;overflow=hidden;rotatable=0;points=[[0,0.5],[1,0.5]];portConstraint=eastwest;align=center;" vertex="1" parent="BSfTipwodXiJnX08Yy5S-6">
          <mxGeometry y="26" width="160" height="54" as="geometry" />
        </mxCell>
        <mxCell id="BSfTipwodXiJnX08Yy5S-8" value="" style="endArrow=classic;html=1;rounded=0;entryX=0.5;entryY=0;entryDx=0;entryDy=0;" edge="1" parent="BSfTipwodXiJnX08Yy5S-6" target="BSfTipwodXiJnX08Yy5S-10">
          <mxGeometry width="50" height="50" relative="1" as="geometry">
            <mxPoint x="80" y="110" as="sourcePoint" />
            <mxPoint x="80" y="150" as="targetPoint" />
          </mxGeometry>
        </mxCell>
        <mxCell id="BSfTipwodXiJnX08Yy5S-9" value="ข้อมูลการชำระเงิน" style="edgeLabel;html=1;align=center;verticalAlign=middle;resizable=0;points=[];" vertex="1" connectable="0" parent="BSfTipwodXiJnX08Yy5S-8">
          <mxGeometry x="-0.2063" y="1" relative="1" as="geometry">
            <mxPoint as="offset" />
          </mxGeometry>
        </mxCell>
        <mxCell id="BSfTipwodXiJnX08Yy5S-10" value="4.1" style="swimlane;html=1;fontStyle=0;childLayout=stackLayout;horizontal=1;startSize=26;fillColor=#e0e0e0;horizontalStack=0;resizeParent=1;resizeLast=0;collapsible=1;marginBottom=0;swimlaneFillColor=#ffffff;align=center;rounded=1;shadow=0;comic=0;labelBackgroundColor=none;strokeWidth=1;fontFamily=Verdana;fontSize=12" vertex="1" parent="1">
          <mxGeometry x="-90" y="270" width="160" height="110" as="geometry" />
        </mxCell>
        <mxCell id="BSfTipwodXiJnX08Yy5S-11" value="&lt;font style=&quot;font-size: 18px;&quot;&gt;สร้าง&lt;/font&gt;&lt;br&gt;&lt;div&gt;&lt;span style=&quot;font-size: 18px;&quot;&gt;ผลงาน&lt;/span&gt;&lt;/div&gt;" style="text;html=1;strokeColor=none;fillColor=none;spacingLeft=4;spacingRight=4;whiteSpace=wrap;overflow=hidden;rotatable=0;points=[[0,0.5],[1,0.5]];portConstraint=eastwest;align=center;" vertex="1" parent="BSfTipwodXiJnX08Yy5S-10">
          <mxGeometry y="26" width="160" height="54" as="geometry" />
        </mxCell>
        <mxCell id="BSfTipwodXiJnX08Yy5S-12" value="4.1" style="swimlane;html=1;fontStyle=0;childLayout=stackLayout;horizontal=1;startSize=26;fillColor=#e0e0e0;horizontalStack=0;resizeParent=1;resizeLast=0;collapsible=1;marginBottom=0;swimlaneFillColor=#ffffff;align=center;rounded=1;shadow=0;comic=0;labelBackgroundColor=none;strokeWidth=1;fontFamily=Verdana;fontSize=12" vertex="1" parent="1">
          <mxGeometry x="-90" y="590" width="160" height="110" as="geometry" />
        </mxCell>
        <mxCell id="BSfTipwodXiJnX08Yy5S-15" value="" style="endArrow=classic;html=1;rounded=0;exitX=0.04;exitY=1.099;exitDx=0;exitDy=0;exitPerimeter=0;entryX=1;entryY=0.709;entryDx=0;entryDy=0;entryPerimeter=0;edgeStyle=elbowEdgeStyle;" edge="1" parent="1">
          <mxGeometry width="50" height="50" relative="1" as="geometry">
            <mxPoint x="240" y="310" as="sourcePoint" />
            <mxPoint x="69.99999999999997" y="444.3459999999999" as="targetPoint" />
          </mxGeometry>
        </mxCell>
        <mxCell id="BSfTipwodXiJnX08Yy5S-16" value="" style="group" vertex="1" connectable="0" parent="1">
          <mxGeometry x="242" y="293" width="250" height="30" as="geometry" />
        </mxCell>
        <mxCell id="BSfTipwodXiJnX08Yy5S-17" value="&lt;font style=&quot;font-size: 18px;&quot;&gt;D4&lt;/font&gt;" style="html=1;dashed=0;whiteSpace=wrap;shape=mxgraph.dfd.dataStoreID;align=left;spacingLeft=3;points=[[0,0],[0.5,0],[1,0],[0,0.5],[1,0.5],[0,1],[0.5,1],[1,1]];container=0;" vertex="1" parent="BSfTipwodXiJnX08Yy5S-16">
          <mxGeometry width="190" height="30" as="geometry" />
        </mxCell>
        <mxCell id="BSfTipwodXiJnX08Yy5S-18" value="&lt;span style=&quot;font-size: 18px;&quot;&gt;แฟ้มผลงาน&lt;/span&gt;" style="text;strokeColor=none;align=center;fillColor=none;html=1;verticalAlign=middle;whiteSpace=wrap;rounded=0;" vertex="1" parent="BSfTipwodXiJnX08Yy5S-16">
          <mxGeometry x="-10" width="200" height="30" as="geometry" />
        </mxCell>
        <mxCell id="BSfTipwodXiJnX08Yy5S-19" value="" style="endArrow=classic;html=1;rounded=0;entryX=0.05;entryY=0.056;entryDx=0;entryDy=0;entryPerimeter=0;exitX=1.001;exitY=-0.027;exitDx=0;exitDy=0;exitPerimeter=0;" edge="1" parent="1" source="BSfTipwodXiJnX08Yy5S-11" target="BSfTipwodXiJnX08Yy5S-18">
          <mxGeometry width="50" height="50" relative="1" as="geometry">
            <mxPoint x="-20" y="400" as="sourcePoint" />
            <mxPoint x="30" y="350" as="targetPoint" />
          </mxGeometry>
        </mxCell>
        <mxCell id="BSfTipwodXiJnX08Yy5S-20" value="ข้อมูลการชำระเงิน" style="edgeLabel;html=1;align=center;verticalAlign=middle;resizable=0;points=[];" vertex="1" connectable="0" parent="BSfTipwodXiJnX08Yy5S-19">
          <mxGeometry x="-0.0903" y="3" relative="1" as="geometry">
            <mxPoint y="2" as="offset" />
          </mxGeometry>
        </mxCell>
        <mxCell id="BSfTipwodXiJnX08Yy5S-21" value="รายงานข้อมูลใบแจ้งหนี้" style="edgeLabel;html=1;align=center;verticalAlign=middle;resizable=0;points=[];" vertex="1" connectable="0" parent="BSfTipwodXiJnX08Yy5S-19">
          <mxGeometry x="-0.0903" y="3" relative="1" as="geometry">
            <mxPoint x="-38" y="113" as="offset" />
          </mxGeometry>
        </mxCell>
        <mxCell id="BSfTipwodXiJnX08Yy5S-22" value="ข้อมูลการชำระเงิน" style="edgeLabel;html=1;align=center;verticalAlign=middle;resizable=0;points=[];" vertex="1" connectable="0" parent="BSfTipwodXiJnX08Yy5S-19">
          <mxGeometry x="-0.0903" y="3" relative="1" as="geometry">
            <mxPoint x="-348" y="-132" as="offset" />
          </mxGeometry>
        </mxCell>
        <mxCell id="BSfTipwodXiJnX08Yy5S-23" value="" style="endArrow=classic;html=1;rounded=0;entryX=1;entryY=0.366;entryDx=0;entryDy=0;entryPerimeter=0;edgeStyle=elbowEdgeStyle;exitX=0.052;exitY=1;exitDx=0;exitDy=0;exitPerimeter=0;" edge="1" parent="1" source="BSfTipwodXiJnX08Yy5S-18">
          <mxGeometry width="50" height="50" relative="1" as="geometry">
            <mxPoint x="260" y="360" as="sourcePoint" />
            <mxPoint x="69.99999999999955" y="635.7640000000001" as="targetPoint" />
            <Array as="points">
              <mxPoint x="180" y="480" />
            </Array>
          </mxGeometry>
        </mxCell>
        <mxCell id="BSfTipwodXiJnX08Yy5S-24" value="รายงานข้อมูลใบแจ้งหนี้" style="edgeLabel;html=1;align=center;verticalAlign=middle;resizable=0;points=[];" vertex="1" connectable="0" parent="BSfTipwodXiJnX08Yy5S-23">
          <mxGeometry x="-0.4261" y="-2" relative="1" as="geometry">
            <mxPoint x="12" y="23" as="offset" />
          </mxGeometry>
        </mxCell>
        <mxCell id="BSfTipwodXiJnX08Yy5S-25" value="" style="endArrow=classic;html=1;rounded=0;edgeStyle=elbowEdgeStyle;entryX=0;entryY=0.815;entryDx=0;entryDy=0;entryPerimeter=0;" edge="1" parent="1" target="BSfTipwodXiJnX08Yy5S-7">
          <mxGeometry width="50" height="50" relative="1" as="geometry">
            <mxPoint x="-300.6" y="299" as="sourcePoint" />
            <mxPoint x="-100" y="180" as="targetPoint" />
            <Array as="points">
              <mxPoint x="-170" y="250" />
            </Array>
          </mxGeometry>
        </mxCell>
        <mxCell id="BSfTipwodXiJnX08Yy5S-27" value="" style="endArrow=classic;html=1;rounded=0;entryX=0.978;entryY=0.615;entryDx=0;entryDy=0;entryPerimeter=0;exitX=-0.01;exitY=0.221;exitDx=0;exitDy=0;exitPerimeter=0;edgeStyle=elbowEdgeStyle;" edge="1" parent="1">
          <mxGeometry width="50" height="50" relative="1" as="geometry">
            <mxPoint x="-90.60000000000036" y="641.934" as="sourcePoint" />
            <mxPoint x="-301.6400000000003" y="430.9000000000001" as="targetPoint" />
            <Array as="points">
              <mxPoint x="-239" y="544" />
            </Array>
          </mxGeometry>
        </mxCell>
        <mxCell id="BSfTipwodXiJnX08Yy5S-28" value="" style="endArrow=classic;html=1;rounded=0;exitX=-0.017;exitY=0.014;exitDx=0;exitDy=0;exitPerimeter=0;entryX=1;entryY=0.75;entryDx=0;entryDy=0;edgeStyle=orthogonalEdgeStyle;elbow=vertical;" edge="1" parent="1">
          <mxGeometry width="50" height="50" relative="1" as="geometry">
            <mxPoint x="-92" y="449" as="sourcePoint" />
            <mxPoint x="-302" y="319" as="targetPoint" />
            <Array as="points">
              <mxPoint x="-92" y="450" />
              <mxPoint x="-202" y="450" />
              <mxPoint x="-202" y="319" />
            </Array>
          </mxGeometry>
        </mxCell>
        <mxCell id="BSfTipwodXiJnX08Yy5S-29" value="" style="endArrow=classic;html=1;rounded=0;exitX=-0.017;exitY=0.014;exitDx=0;exitDy=0;exitPerimeter=0;entryX=1;entryY=0.75;entryDx=0;entryDy=0;edgeStyle=orthogonalEdgeStyle;elbow=vertical;" edge="1" parent="1">
          <mxGeometry width="50" height="50" relative="1" as="geometry">
            <mxPoint x="-89" y="435" as="sourcePoint" />
            <mxPoint x="-307" y="181" as="targetPoint" />
            <Array as="points">
              <mxPoint x="-89" y="436" />
              <mxPoint x="-187" y="436" />
              <mxPoint x="-187" y="181" />
            </Array>
          </mxGeometry>
        </mxCell>
        <mxCell id="BSfTipwodXiJnX08Yy5S-30" value="รายงานข้อมูลใบแจ้งหนี้" style="edgeLabel;html=1;align=center;verticalAlign=middle;resizable=0;points=[];" vertex="1" connectable="0" parent="BSfTipwodXiJnX08Yy5S-29">
          <mxGeometry x="-0.2486" y="-2" relative="1" as="geometry">
            <mxPoint x="42" y="47" as="offset" />
          </mxGeometry>
        </mxCell>
        <mxCell id="BSfTipwodXiJnX08Yy5S-32" value="รายงานข้อมูลใบแจ้งหนี้" style="edgeLabel;html=1;align=center;verticalAlign=middle;resizable=0;points=[];" vertex="1" connectable="0" parent="BSfTipwodXiJnX08Yy5S-29">
          <mxGeometry x="-0.2486" y="-2" relative="1" as="geometry">
            <mxPoint x="25" y="283" as="offset" />
          </mxGeometry>
        </mxCell>
        <mxCell id="BSfTipwodXiJnX08Yy5S-33" value="5.0" style="swimlane;html=1;fontStyle=0;childLayout=stackLayout;horizontal=1;startSize=26;fillColor=#e0e0e0;horizontalStack=0;resizeParent=1;resizeLast=0;collapsible=1;marginBottom=0;swimlaneFillColor=#ffffff;align=center;rounded=1;shadow=0;comic=0;labelBackgroundColor=none;strokeWidth=1;fontFamily=Verdana;fontSize=12" vertex="1" parent="1">
          <mxGeometry x="-61.28" y="980" width="160" height="110" as="geometry" />
        </mxCell>
        <mxCell id="BSfTipwodXiJnX08Yy5S-34" value="&lt;span style=&quot;font-size: 18px;&quot;&gt;จัดการ&lt;/span&gt;&lt;div&gt;&lt;span style=&quot;font-size: 18px;&quot;&gt;แฟ้มผลงาน&lt;/span&gt;&lt;/div&gt;" style="text;html=1;strokeColor=none;fillColor=none;spacingLeft=4;spacingRight=4;whiteSpace=wrap;overflow=hidden;rotatable=0;points=[[0,0.5],[1,0.5]];portConstraint=eastwest;align=center;" vertex="1" parent="BSfTipwodXiJnX08Yy5S-33">
          <mxGeometry y="26" width="160" height="54" as="geometry" />
        </mxCell>
        <mxCell id="BSfTipwodXiJnX08Yy5S-35" value="&lt;span style=&quot;font-size: 18px; text-wrap-mode: nowrap;&quot;&gt;ผู้ใช้&lt;/span&gt;" style="rounded=0;whiteSpace=wrap;html=1;" vertex="1" parent="1">
          <mxGeometry x="-390" y="1000" width="120" height="60" as="geometry" />
        </mxCell>
        <mxCell id="BSfTipwodXiJnX08Yy5S-36" value="" style="endArrow=classic;html=1;rounded=0;exitX=1;exitY=0.25;exitDx=0;exitDy=0;entryX=0.003;entryY=0.172;entryDx=0;entryDy=0;entryPerimeter=0;" edge="1" parent="1" source="BSfTipwodXiJnX08Yy5S-35">
          <mxGeometry width="50" height="50" relative="1" as="geometry">
            <mxPoint x="-251.27999999999997" y="1010" as="sourcePoint" />
            <mxPoint x="-60.79999999999998" y="1015.288" as="targetPoint" />
            <Array as="points" />
          </mxGeometry>
        </mxCell>
        <mxCell id="BSfTipwodXiJnX08Yy5S-37" value="" style="endArrow=classic;html=1;rounded=0;exitX=-0.003;exitY=0.826;exitDx=0;exitDy=0;entryX=1;entryY=0.833;entryDx=0;entryDy=0;entryPerimeter=0;exitPerimeter=0;" edge="1" parent="1" target="BSfTipwodXiJnX08Yy5S-35">
          <mxGeometry width="50" height="50" relative="1" as="geometry">
            <mxPoint x="-61.76000000000002" y="1050.604" as="sourcePoint" />
            <mxPoint x="-251.27999999999997" y="1040" as="targetPoint" />
            <Array as="points" />
          </mxGeometry>
        </mxCell>
        <mxCell id="BSfTipwodXiJnX08Yy5S-38" value="ข้อมูลแฟ้มผลงาน" style="edgeLabel;html=1;align=center;verticalAlign=middle;resizable=0;points=[];" vertex="1" connectable="0" parent="1">
          <mxGeometry x="187.526142692745" y="1014.9652696556514" as="geometry" />
        </mxCell>
        <mxCell id="BSfTipwodXiJnX08Yy5S-39" value="รายงานข้อมูลแฟ้มผลงาน" style="edgeLabel;html=1;align=center;verticalAlign=middle;resizable=0;points=[];" vertex="1" connectable="0" parent="1">
          <mxGeometry x="187.526142692745" y="1034.9652696556514" as="geometry" />
        </mxCell>
        <mxCell id="BSfTipwodXiJnX08Yy5S-40" value="ข้อมูลแฟ้มผลงาน" style="edgeLabel;html=1;align=center;verticalAlign=middle;resizable=0;points=[];" vertex="1" connectable="0" parent="1">
          <mxGeometry x="-171.47385730725455" y="1009.9652696556514" as="geometry" />
        </mxCell>
        <mxCell id="BSfTipwodXiJnX08Yy5S-41" value="แสดงข้อมูลแฟ้มผลงาน" style="edgeLabel;html=1;align=center;verticalAlign=middle;resizable=0;points=[];" vertex="1" connectable="0" parent="1">
          <mxGeometry x="-171.47385730725455" y="1039.9652696556514" as="geometry" />
        </mxCell>
        <mxCell id="BSfTipwodXiJnX08Yy5S-42" value="" style="endArrow=classic;html=1;rounded=0;exitX=0.992;exitY=0.389;exitDx=0;exitDy=0;exitPerimeter=0;entryX=0;entryY=0.242;entryDx=0;entryDy=0;entryPerimeter=0;" edge="1" parent="1">
          <mxGeometry width="50" height="50" relative="1" as="geometry">
            <mxPoint x="98.72000000000025" y="1022.006" as="sourcePoint" />
            <mxPoint x="270" y="1022.26" as="targetPoint" />
            <Array as="points" />
          </mxGeometry>
        </mxCell>
        <mxCell id="BSfTipwodXiJnX08Yy5S-43" value="" style="endArrow=classic;html=1;rounded=0;exitX=-0.001;exitY=0.799;exitDx=0;exitDy=0;exitPerimeter=0;entryX=1;entryY=0.709;entryDx=0;entryDy=0;entryPerimeter=0;" edge="1" parent="1">
          <mxGeometry width="50" height="50" relative="1" as="geometry">
            <mxPoint x="269.80999999999995" y="1038.97" as="sourcePoint" />
            <mxPoint x="100" y="1039.286" as="targetPoint" />
            <Array as="points" />
          </mxGeometry>
        </mxCell>
        <mxCell id="BSfTipwodXiJnX08Yy5S-44" value="" style="group" vertex="1" connectable="0" parent="1">
          <mxGeometry x="268.7200000000001" y="1010" width="190" height="30" as="geometry" />
        </mxCell>
        <mxCell id="BSfTipwodXiJnX08Yy5S-45" value="&lt;font style=&quot;font-size: 18px;&quot;&gt;D5&lt;/font&gt;" style="html=1;dashed=0;whiteSpace=wrap;shape=mxgraph.dfd.dataStoreID;align=left;spacingLeft=3;points=[[0,0],[0.5,0],[1,0],[0,0.5],[1,0.5],[0,1],[0.5,1],[1,1]];container=0;" vertex="1" parent="BSfTipwodXiJnX08Yy5S-44">
          <mxGeometry width="190" height="30" as="geometry" />
        </mxCell>
        <mxCell id="BSfTipwodXiJnX08Yy5S-46" value="&lt;div&gt;&lt;span style=&quot;font-size: 18px;&quot;&gt;แฟ้มผลงาน&lt;/span&gt;&lt;/div&gt;" style="text;strokeColor=none;align=center;fillColor=none;html=1;verticalAlign=middle;whiteSpace=wrap;rounded=0;" vertex="1" parent="BSfTipwodXiJnX08Yy5S-44">
          <mxGeometry x="35" width="105" height="30" as="geometry" />
        </mxCell>
      </root>
    </mxGraphModel>
  </diagram>
</mxfile>
